<svg xmlns="http://www.w3.org/2000/svg" xmlns:xlink="http://www.w3.org/1999/xlink" width="500" zoomAndPan="magnify" viewBox="0 0 375 374.999991" height="500" preserveAspectRatio="xMidYMid meet" version="1.0"><defs><g/><clipPath id="86bac6d510"><path d="M 161.265625 157.878906 L 263.71875 157.878906 L 263.71875 233.722656 L 161.265625 233.722656 Z M 161.265625 157.878906 " clip-rule="nonzero"/></clipPath><clipPath id="d0a742f6d1"><path d="M 140 69.578125 L 192 69.578125 L 192 152 L 140 152 Z M 140 69.578125 " clip-rule="nonzero"/></clipPath><clipPath id="cd148054bb"><path d="M 103.125 150.976562 L 272.308594 150.976562 L 272.308594 165 L 103.125 165 Z M 103.125 150.976562 " clip-rule="nonzero"/></clipPath></defs><path fill="#40b93c" d="M 170.457031 180.289062 C 176.632812 174.492188 174.175781 164.65625 168.980469 157.992188 L 111.839844 157.992188 C 111.839844 188.910156 130.414062 215.484375 157.027344 227.25 C 152.449219 200.867188 165.3125 185.113281 170.457031 180.289062 " fill-opacity="1" fill-rule="nonzero"/><g clip-path="url(#86bac6d510)"><path fill="#40b93c" d="M 228.195312 157.992188 C 222.988281 166.019531 213.738281 176.621094 199.003906 182.089844 C 177.109375 190.214844 154.671875 195.273438 163.074219 229.613281 C 170.804688 232.265625 179.089844 233.722656 187.71875 233.722656 C 229.625 233.722656 263.59375 199.816406 263.59375 157.992188 L 228.195312 157.992188 " fill-opacity="1" fill-rule="nonzero"/></g><g clip-path="url(#d0a742f6d1)"><path fill="#80cc28" d="M 174.191406 129.464844 C 169.417969 121.691406 165.234375 113.132812 164.542969 106.15625 C 164.542969 106.15625 169.9375 114.101562 176.808594 122.65625 C 179.855469 116.089844 184.605469 109.214844 191.75 102.386719 C 184.480469 90.621094 170.84375 78.535156 145.933594 69.582031 C 145.933594 69.582031 132.566406 100.9375 146.054688 125.160156 C 151.101562 136.398438 160.289062 145.027344 172.410156 151.609375 C 171.5625 145.550781 171.59375 137.890625 174.191406 129.464844 " fill-opacity="1" fill-rule="nonzero"/></g><path fill="#80cc28" d="M 229.5 91.855469 C 160.878906 116.519531 177.78125 164.953125 177.78125 164.953125 C 189.699219 159.652344 210.890625 128.429688 210.890625 128.429688 C 209.617188 141.269531 196.53125 159.492188 189.683594 168.257812 C 189.523438 168.433594 181.007812 177.875 175.957031 180.644531 C 164.730469 186.808594 165.050781 192.972656 164.523438 195.65625 C 164.507812 195.734375 164.492188 195.800781 164.480469 195.855469 C 165 194.425781 168.617188 187.0625 185.265625 181.472656 C 206.191406 174.453125 222.089844 163.65625 229.378906 147.433594 C 242.867188 123.207031 229.5 91.855469 229.5 91.855469 " fill-opacity="1" fill-rule="nonzero"/><g clip-path="url(#cd148054bb)"><path fill="#40b93c" d="M 265.292969 150.988281 L 232.171875 150.988281 C 230.566406 154.289062 227.613281 159.546875 222.984375 164.996094 L 265.292969 164.996094 C 269.167969 164.996094 272.308594 161.859375 272.308594 157.992188 C 272.308594 154.121094 269.167969 150.988281 265.292969 150.988281 Z M 172.875 164.996094 L 110.140625 164.996094 C 106.265625 164.996094 103.125 161.859375 103.125 157.992188 C 103.125 154.121094 106.265625 150.988281 110.140625 150.988281 L 158.550781 150.988281 C 162.300781 152.484375 166.03125 154.492188 168.234375 157.0625 C 170.203125 159.359375 171.832031 162.121094 172.875 164.996094 " fill-opacity="1" fill-rule="nonzero"/></g><g fill="#40b93c" fill-opacity="1"><g transform="translate(23.360479, 290.65301)"><g><path d="M 3.972656 0 L 14.714844 0 L 14.714844 -19.066406 L 21.964844 -8.914062 L 29 -8.914062 L 36.199219 -19.011719 L 36.199219 0 L 46.941406 0 L 46.941406 -37.59375 L 38.132812 -37.59375 L 25.457031 -19.710938 L 12.835938 -37.59375 L 3.972656 -37.59375 Z M 3.972656 0 "/></g></g></g><g fill="#40b93c" fill-opacity="1"><g transform="translate(74.272692, 290.65301)"><g><path d="M 17.722656 0.804688 C 25.082031 0.804688 30.71875 -2.847656 33.246094 -9.183594 L 23.253906 -9.183594 C 22.128906 -7.839844 20.140625 -6.980469 17.9375 -6.980469 C 15.039062 -6.980469 12.621094 -8.539062 11.871094 -11.65625 L 33.78125 -11.65625 C 34.320312 -22.234375 27.925781 -29.214844 17.777344 -29.214844 C 8.269531 -29.214844 1.664062 -23.09375 1.664062 -14.230469 C 1.664062 -5.316406 8.21875 0.804688 17.722656 0.804688 Z M 11.921875 -17.238281 C 12.78125 -19.980469 15.039062 -21.484375 17.882812 -21.484375 C 21 -21.484375 23.09375 -19.871094 23.953125 -17.238281 Z M 14.125 -32.117188 L 21.269531 -32.117188 L 25.457031 -40.871094 L 17.023438 -40.871094 Z M 14.125 -32.117188 "/></g></g></g><g fill="#40b93c" fill-opacity="1"><g transform="translate(109.664196, 290.65301)"><g><path d="M 16.164062 0.804688 C 20.195312 0.804688 23.578125 -0.535156 26.101562 -2.847656 L 27.121094 0 L 34.535156 0 L 34.535156 -39.742188 L 24.222656 -39.742188 L 24.222656 -26.960938 C 21.964844 -28.410156 19.226562 -29.214844 16.164062 -29.214844 C 7.625 -29.214844 1.664062 -23.039062 1.664062 -14.230469 C 1.664062 -5.316406 7.625 0.804688 16.164062 0.804688 Z M 11.761719 -14.230469 C 11.761719 -17.992188 14.394531 -20.675781 18.207031 -20.675781 C 21.964844 -20.675781 24.597656 -17.992188 24.597656 -14.230469 C 24.597656 -10.417969 21.964844 -7.734375 18.207031 -7.734375 C 14.394531 -7.734375 11.761719 -10.417969 11.761719 -14.230469 Z M 11.761719 -14.230469 "/></g></g></g><g fill="#40b93c" fill-opacity="1"><g transform="translate(147.794646, 290.65301)"><g><path d="M 3.597656 0 L 13.910156 0 L 13.910156 -28.410156 L 3.597656 -28.410156 Z M 2.578125 -38.132812 C 2.578125 -34.585938 5.15625 -32.117188 8.753906 -32.117188 C 12.351562 -32.117188 14.929688 -34.585938 14.929688 -38.132812 C 14.929688 -41.675781 12.351562 -44.09375 8.753906 -44.09375 C 5.15625 -44.09375 2.578125 -41.675781 2.578125 -38.132812 Z M 2.578125 -38.132812 "/></g></g></g><g fill="#40b93c" fill-opacity="1"><g transform="translate(165.302426, 290.65301)"><g><path d="M 3.972656 0 L 14.824219 0 L 14.824219 -9.292969 L 19.816406 -9.292969 C 29.378906 -9.292969 35.445312 -14.824219 35.445312 -23.46875 C 35.445312 -32.117188 29.378906 -37.59375 19.816406 -37.59375 L 3.972656 -37.59375 Z M 14.714844 -18.367188 L 14.714844 -28.464844 L 18.796875 -28.464844 C 22.394531 -28.464844 24.492188 -26.53125 24.492188 -23.417969 C 24.492188 -20.246094 22.394531 -18.367188 18.796875 -18.367188 Z M 14.714844 -18.367188 "/></g></g></g><g fill="#40b93c" fill-opacity="1"><g transform="translate(201.982852, 290.65301)"><g><path d="M 3.597656 0 L 13.910156 0 L 13.910156 -39.742188 L 3.597656 -39.742188 Z M 3.597656 0 "/></g></g></g><g fill="#40b93c" fill-opacity="1"><g transform="translate(219.490632, 290.65301)"><g><path d="M 13.050781 0.644531 C 17.132812 0.644531 20.570312 -0.699219 22.988281 -3.113281 L 24.113281 0 L 31.527344 0 L 31.527344 -16.542969 C 31.527344 -24.652344 26.421875 -29.214844 17.292969 -29.214844 C 9.34375 -29.214844 4.566406 -25.617188 3.707031 -19.066406 L 13.371094 -19.066406 C 13.640625 -20.730469 15.253906 -21.859375 17.347656 -21.859375 C 19.65625 -21.859375 21.484375 -20.515625 21.484375 -18.636719 L 21.484375 -17.023438 L 11.921875 -17.023438 C 6.070312 -17.023438 2.308594 -13.535156 2.308594 -8.324219 C 2.308594 -2.792969 6.5 0.644531 13.050781 0.644531 Z M 12.40625 -8.808594 C 12.40625 -10.417969 13.800781 -11.386719 16.003906 -11.386719 L 21.589844 -11.386719 C 21.589844 -8.269531 19.226562 -6.175781 16.113281 -6.175781 C 13.910156 -6.175781 12.40625 -7.195312 12.40625 -8.808594 Z M 12.40625 -8.808594 "/></g></g></g><g fill="#40b93c" fill-opacity="1"><g transform="translate(254.076573, 290.65301)"><g><path d="M 3.597656 0 L 13.910156 0 L 13.910156 -15.304688 C 13.910156 -18.742188 15.683594 -20.675781 18.527344 -20.675781 C 21.269531 -20.675781 22.878906 -18.90625 22.878906 -15.574219 L 22.878906 0 L 33.191406 0 L 33.191406 -16.648438 C 33.191406 -24.328125 28.625 -29.214844 21.320312 -29.214844 C 17.507812 -29.214844 14.179688 -27.875 12.085938 -25.511719 L 11.011719 -28.410156 L 3.597656 -28.410156 Z M 3.597656 0 "/></g></g></g><g fill="#40b93c" fill-opacity="1"><g transform="translate(290.327363, 290.65301)"><g><path d="M 18.046875 0 L 23.792969 0 L 23.792969 -8.699219 L 20.839844 -8.699219 C 17.832031 -8.699219 16.433594 -10.042969 16.433594 -12.996094 L 16.433594 -20.300781 L 23.417969 -20.300781 L 23.417969 -28.410156 L 16.433594 -28.410156 L 16.433594 -35.875 L 8.433594 -35.875 L 7.894531 -32.171875 C 7.464844 -29.214844 6.660156 -28.410156 3.4375 -28.410156 L 0.859375 -28.410156 L 0.859375 -20.300781 L 6.121094 -20.300781 L 6.121094 -11.011719 C 6.121094 -3.8125 10.257812 0 18.046875 0 Z M 18.046875 0 "/></g></g></g><g fill="#40b93c" fill-opacity="1"><g transform="translate(316.213128, 290.65301)"><g><path d="M 17.722656 0.804688 C 25.082031 0.804688 30.71875 -2.847656 33.246094 -9.183594 L 23.253906 -9.183594 C 22.128906 -7.839844 20.140625 -6.980469 17.9375 -6.980469 C 15.039062 -6.980469 12.621094 -8.539062 11.871094 -11.65625 L 33.78125 -11.65625 C 34.320312 -22.234375 27.925781 -29.214844 17.777344 -29.214844 C 8.269531 -29.214844 1.664062 -23.09375 1.664062 -14.230469 C 1.664062 -5.316406 8.21875 0.804688 17.722656 0.804688 Z M 11.921875 -17.238281 C 12.78125 -19.980469 15.039062 -21.484375 17.882812 -21.484375 C 21 -21.484375 23.09375 -19.871094 23.953125 -17.238281 Z M 11.921875 -17.238281 "/></g></g></g></svg>